<svg width="23" height="28" viewBox="0 0 23 28" fill="none" xmlns="http://www.w3.org/2000/svg">
<path d="M20 0.666626H8C6.53333 0.666626 5.33333 1.86663 5.33333 3.33329V19.3333C5.33333 20.8 6.53333 22 8 22H20C21.4667 22 22.6667 20.8 22.6667 19.3333V3.33329C22.6667 1.86663 21.4667 0.666626 20 0.666626ZM20 19.3333H8V3.33329H20V19.3333ZM0 18V15.3333H2.66667V18H0ZM0 10.6666H2.66667V13.3333H0V10.6666ZM9.33333 24.6666H12V27.3333H9.33333V24.6666ZM0 22.6666V20H2.66667V22.6666H0ZM2.66667 27.3333C1.2 27.3333 0 26.1333 0 24.6666H2.66667V27.3333ZM7.33333 27.3333H4.66667V24.6666H7.33333V27.3333ZM14 27.3333V24.6666H16.6667C16.6667 26.1333 15.4667 27.3333 14 27.3333ZM2.66667 5.99996V8.66663H0C0 7.19996 1.2 5.99996 2.66667 5.99996Z" fill="#A5FFAF"/>
</svg>
